<svg width="79" height="39" viewBox="0 0 79 39" fill="none" xmlns="http://www.w3.org/2000/svg">
<path opacity="0.4" fill-rule="evenodd" clip-rule="evenodd" d="M78.026 0.630296C79.2143 5.3004 63.8441 36.0384 44.8485 38.3526C37.5005 39.2539 25.2949 30.3996 13.7828 15.8686C11.8848 13.4722 10.599 11.812 8.43103 9.76936C8.29781 9.63448 8.65627 11.0008 9.25332 12.8237C10.6669 17.1396 10.743 19.4564 9.49493 20.5848C8.88443 21.1224 8.62701 20.8349 8.30545 19.264C7.39318 14.7569 5.42531 10.5159 1.65121 5.01954C0.171729 2.8587 0.0128815 -0.61689 5.90936 2.38751C10.8973 4.92901 14.1067 6.07291 19.38 7.12948C22.7974 7.82106 23.7236 9.87866 20.9856 10.6722C20.0371 10.9483 16.4052 10.2814 12.7134 9.15967L10.8318 8.58063C15.5237 14.4776 15.7985 14.8633 19.8642 19.3468C29.5404 29.9944 38.2188 35.466 44.3954 34.7941C60.011 33.0803 70.9106 12.437 77.3139 0.178153C77.4856 -0.158722 77.8951 0.0945818 78.026 0.630296Z" fill="white"/>
</svg>
