<svg width="95" height="57" viewBox="0 0 95 57" fill="none" xmlns="http://www.w3.org/2000/svg">
<path opacity="0.4" fill-rule="evenodd" clip-rule="evenodd" d="M94.525 56.3241C97.2394 50.9552 86.8442 9.32924 64.3232 1.35807C55.6131 -1.73285 38.3382 5.74751 20.3689 20.3336C17.4061 22.7393 15.389 24.4137 12.1932 26.315C11.9942 26.4433 12.8016 24.8755 14.0234 22.816C16.9164 17.9398 17.6374 15.1372 16.4224 13.4236C15.8243 12.603 15.4326 12.8835 14.6148 14.7106C12.2809 19.9557 8.73275 24.5903 2.64311 30.2648C0.254231 32.4968 -0.881817 36.6892 7.11846 34.6269C13.8861 32.8824 18.1072 32.3587 24.82 32.5011C29.172 32.585 30.8587 30.3287 27.7373 28.6192C26.6563 28.0255 22.0495 27.8534 17.2464 28.2193L14.7965 28.4147C22.1132 22.5008 22.5526 22.1053 28.723 17.744C43.4019 7.39248 55.4614 3.07806 62.8061 5.57171C81.3709 11.8946 89.0556 40.0066 93.5346 56.682C93.6524 57.139 94.2202 56.9414 94.525 56.3241Z" fill="white"/>
</svg>
