<svg width="791" height="382" viewBox="0 0 791 382" fill="none" xmlns="http://www.w3.org/2000/svg">
<path opacity="0.2" fill-rule="evenodd" clip-rule="evenodd" d="M165.99 183.571L120.614 195.528L104.838 137.495L150.202 125.492L116.828 92.086L159.086 49.828L192.492 83.2017L204.494 37.8384L262.528 53.6141L250.571 98.99L295.947 87.0328L311.722 145.066L266.359 157.069L299.733 190.475L257.475 232.733L224.069 199.359L212.066 244.723L154.033 228.947L165.99 183.571Z" fill="white"/>
<path d="M96.8576 316.896C76.9639 322.271 61.3059 337.982 55.9722 357.922C50.5854 338.081 34.9669 322.46 15.1423 317.104C35.0357 311.729 50.6938 296.018 56.0277 276.079C61.4145 295.92 77.0331 311.54 96.8576 316.896Z" stroke="#8EF8B6" stroke-width="4"/>
<path d="M688.958 356.039C689.741 355.873 690.231 355.658 690.428 355.394C690.623 355.116 690.552 354.79 690.215 354.416C690.065 354.253 689.853 354.087 689.579 353.919C689.306 353.75 689.004 353.573 688.673 353.388C688.34 353.189 688.012 352.976 687.687 352.749C687.374 352.507 687.102 352.23 686.871 351.919C686.653 351.605 686.515 351.243 686.456 350.834C686.395 350.412 686.444 349.997 686.602 349.59C686.758 349.17 687.01 348.793 687.358 348.461C687.716 348.114 688.167 347.831 688.711 347.614C689.266 347.38 689.91 347.233 690.644 347.171C691.388 347.094 692.218 347.117 693.134 347.24C693.134 347.24 693.157 347.256 693.203 347.289C693.247 347.308 693.295 347.347 693.346 347.406C693.41 347.462 693.456 347.535 693.486 347.625C693.528 347.712 693.534 347.819 693.502 347.947C693.481 348.059 693.437 348.154 693.37 348.234C693.313 348.298 693.249 348.357 693.177 348.41C693.103 348.45 693.04 348.475 692.987 348.484C692.935 348.493 692.909 348.498 692.909 348.498C692.909 348.498 692.835 348.504 692.688 348.517C692.542 348.529 692.349 348.549 692.11 348.578C691.872 348.606 691.608 348.646 691.319 348.697C691.041 348.733 690.753 348.79 690.456 348.87C690.156 348.936 689.873 349.02 689.607 349.121C689.353 349.22 689.137 349.339 688.959 349.479C688.641 349.751 688.453 350.028 688.395 350.309C688.347 350.575 688.442 350.849 688.682 351.132C688.934 351.412 689.363 351.696 689.969 351.981C690.616 352.274 691.15 352.613 691.57 352.999C692.003 353.383 692.294 353.805 692.443 354.267C692.603 354.712 692.579 355.19 692.371 355.701C692.227 356.038 691.956 356.343 691.558 356.616C691.172 356.887 690.703 357.105 690.15 357.27C689.608 357.42 689.041 357.507 688.449 357.53C687.855 357.54 687.28 357.465 686.724 357.306C686.168 357.147 685.681 356.88 685.263 356.507C685.263 356.507 685.247 356.49 685.213 356.455C685.193 356.418 685.164 356.369 685.127 356.308C685.1 356.232 685.086 356.153 685.085 356.072C685.095 355.975 685.146 355.878 685.237 355.781C685.312 355.673 685.395 355.604 685.485 355.575C685.585 355.53 685.676 355.507 685.757 355.506C685.851 355.503 685.927 355.51 685.984 355.527C686.052 355.529 686.086 355.53 686.086 355.53C686.086 355.53 686.161 355.571 686.311 355.652C686.474 355.732 686.693 355.822 686.968 355.923C687.24 356.01 687.542 356.072 687.874 356.108C688.218 356.142 688.579 356.119 688.958 356.039ZM699.002 355.689C698.319 355.81 697.701 355.797 697.147 355.651C696.591 355.492 696.111 355.224 695.706 354.849C695.315 354.471 695.015 354.003 694.808 353.443C694.601 352.884 694.506 352.265 694.521 351.585C694.543 350.864 694.684 350.168 694.946 349.5C695.218 348.815 695.576 348.197 696.02 347.645C696.475 347.077 697.002 346.612 697.602 346.249C698.199 345.873 698.831 345.619 699.498 345.488C700.457 345.319 701.276 345.357 701.956 345.603C702.646 345.833 703.174 346.295 703.54 346.989C703.904 347.67 704.074 348.594 704.05 349.763C704.034 350.442 703.901 351.109 703.651 351.762C703.411 352.4 703.068 352.989 702.622 353.528C702.175 354.067 701.647 354.526 701.037 354.904C700.426 355.282 699.748 355.544 699.002 355.689ZM699.103 353.844C699.51 353.772 699.902 353.615 700.279 353.372C700.654 353.117 700.985 352.808 701.273 352.446C701.575 352.081 701.815 351.68 701.995 351.242C702.173 350.791 702.263 350.342 702.265 349.895C702.293 349.131 702.193 348.526 701.966 348.079C701.735 347.619 701.41 347.31 700.99 347.154C700.581 346.983 700.107 346.944 699.569 347.039C699.162 347.111 698.78 347.287 698.423 347.566C698.064 347.833 697.743 348.167 697.462 348.568C697.194 348.968 696.98 349.405 696.82 349.88C696.658 350.342 696.569 350.797 696.553 351.247C696.535 351.832 696.625 352.344 696.824 352.783C697.034 353.207 697.332 353.513 697.717 353.702C698.103 353.891 698.565 353.939 699.103 353.844ZM703.969 354.834C703.746 354.873 703.562 354.865 703.416 354.809C703.284 354.751 703.192 354.686 703.138 354.615C703.085 354.543 703.058 354.507 703.058 354.507C702.981 353.532 702.932 352.559 702.909 351.588C702.885 350.604 702.896 349.594 702.943 348.556C702.991 347.519 703.071 346.442 703.186 345.325C703.186 345.325 703.212 345.28 703.264 345.19C703.315 345.099 703.408 345.009 703.541 344.917C703.684 344.811 703.882 344.742 704.134 344.711C704.372 344.683 704.547 344.713 704.657 344.802C704.781 344.888 704.869 345.001 704.92 345.141C704.97 345.268 704.997 345.385 705.003 345.492C705.006 345.587 705.007 345.634 705.007 345.634C704.928 346.338 704.864 347.013 704.816 347.658C704.78 348.3 704.759 348.947 704.752 349.598C704.742 350.236 704.739 350.907 704.741 351.611C704.756 352.312 704.777 353.08 704.802 353.915C704.802 353.915 704.796 353.957 704.784 354.04C704.769 354.111 704.731 354.205 704.671 354.324C704.622 354.428 704.538 354.53 704.421 354.632C704.317 354.732 704.166 354.799 703.969 354.834ZM707.587 354.216C707.363 354.256 707.179 354.247 707.034 354.192C706.9 354.121 706.797 354.037 706.726 353.941C706.652 353.833 706.602 353.74 706.575 353.663C706.548 353.587 706.535 353.549 706.535 353.549C706.488 352.975 706.452 352.311 706.427 351.557C706.413 350.788 706.414 349.982 706.428 349.14C706.439 348.285 706.457 347.429 706.482 346.572C706.52 345.712 706.569 344.878 706.63 344.068C706.69 343.259 706.756 342.516 706.826 341.84C706.826 341.84 706.833 341.805 706.848 341.735C706.873 341.649 706.917 341.553 706.98 341.447C707.056 341.339 707.153 341.241 707.273 341.152C707.406 341.061 707.58 341.01 707.795 340.999C708.02 340.973 708.194 340.997 708.315 341.07C708.449 341.141 708.54 341.233 708.587 341.347C708.647 341.458 708.685 341.56 708.702 341.652C708.718 341.744 708.726 341.79 708.726 341.79C708.672 342.327 708.622 342.965 708.576 343.705C708.544 344.441 708.514 345.232 708.487 346.076C708.457 346.907 708.437 347.75 708.425 348.605C708.413 349.46 708.405 350.295 708.399 351.108C708.404 351.906 708.418 352.634 708.439 353.294C708.439 353.294 708.427 353.337 708.401 353.423C708.386 353.493 708.356 353.586 708.308 353.703C708.259 353.807 708.176 353.909 708.058 354.011C707.941 354.113 707.784 354.181 707.587 354.216ZM713.802 353.323C712.936 353.327 712.243 353.199 711.724 352.938C711.202 352.665 710.808 352.315 710.543 351.887C710.276 351.447 710.095 350.958 710 350.419C709.918 349.879 709.877 349.338 709.876 348.796C709.877 348.187 710.003 347.555 710.253 346.902C710.501 346.235 710.844 345.606 711.281 345.015C711.731 344.421 712.267 343.927 712.888 343.533C713.522 343.137 714.225 342.898 714.996 342.816C715.766 342.735 716.391 342.78 716.868 342.953C717.356 343.111 717.73 343.35 717.989 343.67C718.249 343.989 718.426 344.344 718.522 344.733C718.618 345.122 718.664 345.5 718.661 345.866C718.645 346.546 718.46 347.147 718.106 347.67C717.749 348.18 717.217 348.578 716.509 348.865C716.293 348.944 716.029 349.025 715.719 349.106C715.406 349.175 715.066 349.242 714.698 349.307C714.33 349.371 713.968 349.429 713.611 349.478C713.268 349.525 712.95 349.567 712.659 349.605C712.368 349.643 712.13 349.678 711.946 349.711C711.773 349.728 711.687 349.736 711.687 349.736C711.712 350.111 711.815 350.465 711.996 350.799C712.188 351.117 712.467 351.359 712.835 351.524C713.216 351.687 713.685 351.74 714.244 351.682C714.732 351.609 715.19 351.522 715.619 351.419C716.048 351.316 716.415 351.211 716.721 351.103C717.04 350.992 717.288 350.901 717.465 350.829C717.641 350.758 717.73 350.722 717.73 350.722C717.73 350.722 717.763 350.716 717.828 350.704C717.905 350.677 717.99 350.662 718.084 350.659C718.179 350.656 718.278 350.679 718.381 350.729C718.482 350.765 718.565 350.852 718.63 350.989C718.706 351.111 718.733 351.229 718.712 351.341C718.702 351.437 718.665 351.532 718.6 351.624C718.546 351.702 718.496 351.765 718.45 351.813C718.416 351.846 718.398 351.863 718.398 351.863C718.398 351.863 718.306 351.913 718.12 352.014C717.935 352.114 717.68 352.24 717.354 352.392C717.04 352.529 716.686 352.673 716.293 352.823C715.9 352.974 715.488 353.094 715.057 353.183C714.641 353.284 714.223 353.33 713.802 353.323ZM711.708 348.473L715.581 347.75C715.581 347.75 715.626 347.735 715.716 347.706C715.803 347.663 715.915 347.61 716.053 347.545C716.203 347.477 716.348 347.377 716.487 347.245C716.626 347.112 716.746 346.948 716.848 346.755C716.947 346.548 716.998 346.302 717.002 346.017C717 345.543 716.919 345.165 716.761 344.881C716.616 344.595 716.361 344.417 715.996 344.346C715.63 344.262 715.128 344.296 714.491 344.449C714.023 344.558 713.609 344.78 713.248 345.115C712.898 345.434 712.605 345.804 712.368 346.225C712.13 346.645 711.953 347.063 711.837 347.476C711.718 347.876 711.675 348.208 711.708 348.473ZM733.393 349.28C733.171 349.251 733.004 349.186 732.892 349.084C732.792 348.98 732.719 348.871 732.671 348.757C732.635 348.628 732.615 348.517 732.612 348.422C732.62 348.313 732.624 348.258 732.624 348.258C732.784 347.092 732.856 346.044 732.841 345.112C732.837 344.166 732.691 343.453 732.403 342.976C732.147 342.52 731.849 342.214 731.51 342.057C731.169 341.887 730.804 341.85 730.414 341.946C730.036 342.026 729.657 342.221 729.279 342.532C728.818 342.911 728.46 343.34 728.206 343.818C727.952 344.296 727.761 344.79 727.634 345.299C727.521 345.807 727.457 346.292 727.444 346.755C727.44 347.189 727.434 347.582 727.429 347.935C727.424 348.288 727.424 348.599 727.431 348.869C727.438 349.138 727.443 349.361 727.447 349.536C727.447 349.536 727.445 349.564 727.442 349.619C727.451 349.671 727.436 349.741 727.397 349.829C727.372 349.915 727.312 350 727.219 350.084C727.126 350.168 726.988 350.233 726.807 350.279C726.651 350.32 726.514 350.31 726.395 350.25C726.276 350.19 726.184 350.125 726.117 350.055C726.051 349.986 726.018 349.951 726.018 349.951C725.871 349.733 725.798 349.509 725.798 349.279C725.798 349.049 725.806 348.79 725.823 348.503C725.853 348.213 725.847 347.869 725.804 347.47C725.784 346.973 725.778 346.52 725.788 346.112C725.808 345.689 725.846 345.29 725.901 344.915C725.968 344.524 726.065 344.155 726.193 343.807C726.322 343.459 726.497 343.11 726.72 342.76C726.988 342.36 727.314 341.985 727.699 341.633C728.083 341.28 728.504 340.976 728.959 340.72C729.415 340.463 729.884 340.279 730.365 340.167C730.859 340.053 731.343 340.035 731.818 340.114C732.145 340.205 732.461 340.346 732.765 340.536C733.067 340.713 733.344 340.942 733.597 341.222C733.863 341.5 734.086 341.847 734.268 342.261C734.46 342.661 734.612 343.142 734.725 343.704C734.848 344.4 734.888 345.124 734.844 345.876C734.814 346.626 734.723 347.455 734.572 348.361C734.572 348.361 734.56 348.411 734.537 348.51C734.514 348.608 734.459 348.72 734.372 348.843C734.299 348.965 734.183 349.073 734.023 349.169C733.875 349.249 733.665 349.286 733.393 349.28ZM726.72 350.822C726.533 350.841 726.375 350.829 726.246 350.784C726.127 350.724 726.033 350.652 725.964 350.57C725.893 350.474 725.839 350.395 725.801 350.334C725.776 350.271 725.764 350.239 725.764 350.239C725.704 349.519 725.662 348.815 725.636 348.13C725.622 347.441 725.624 346.757 725.639 346.078C725.653 345.385 725.682 344.669 725.728 343.93C725.786 343.188 725.858 342.404 725.942 341.577C725.942 341.577 725.95 341.542 725.964 341.471C725.99 341.386 726.034 341.29 726.096 341.184C726.159 341.078 726.25 340.981 726.37 340.892C726.5 340.788 726.672 340.724 726.884 340.7C727.121 340.658 727.3 340.674 727.421 340.747C727.555 340.818 727.647 340.917 727.696 341.044C727.757 341.155 727.795 341.257 727.811 341.349C727.84 341.438 727.855 341.483 727.855 341.483C727.787 342.172 727.73 342.846 727.683 343.504C727.65 344.159 727.626 344.827 727.61 345.507C727.595 346.186 727.59 346.891 727.597 347.621C727.602 348.338 727.62 349.093 727.651 349.886C727.651 349.886 727.638 349.929 727.613 350.015C727.601 350.098 727.564 350.199 727.504 350.318C727.441 350.424 727.345 350.529 727.214 350.633C727.097 350.735 726.932 350.798 726.72 350.822ZM740.723 348.333C740.027 348.455 739.395 348.438 738.825 348.281C738.269 348.122 737.79 347.861 737.388 347.499C736.983 347.124 736.677 346.656 736.47 346.097C736.263 345.538 736.168 344.919 736.183 344.239C736.199 343.559 736.337 342.885 736.598 342.216C736.857 341.534 737.214 340.909 737.669 340.342C738.124 339.774 738.649 339.296 739.244 338.906C739.852 338.515 740.497 338.259 741.18 338.138C741.863 338.018 742.497 338.008 743.083 338.107C743.67 338.207 744.176 338.429 744.602 338.774C745.039 339.103 745.371 339.566 745.598 340.162C745.825 340.758 745.929 341.498 745.909 342.382C745.893 343.062 745.74 343.732 745.451 344.392C745.174 345.05 744.793 345.652 744.307 346.198C743.821 346.744 743.273 347.206 742.663 347.585C742.052 347.963 741.406 348.212 740.723 348.333ZM740.749 346.521C741.156 346.449 741.548 346.292 741.925 346.049C742.3 345.794 742.637 345.484 742.939 345.119C743.24 344.755 743.475 344.361 743.645 343.939C743.825 343.501 743.922 343.057 743.938 342.607C743.953 341.847 743.846 341.243 743.618 340.795C743.391 340.348 743.067 340.047 742.646 339.89C742.224 339.721 741.744 339.684 741.205 339.779C740.798 339.851 740.41 340.028 740.04 340.309C739.68 340.576 739.36 340.91 739.079 341.312C738.809 341.698 738.592 342.122 738.43 342.584C738.268 343.045 738.179 343.501 738.163 343.951C738.158 344.534 738.254 345.038 738.45 345.464C738.66 345.887 738.958 346.193 739.344 346.383C739.742 346.57 740.211 346.616 740.749 346.521ZM757.228 345.443C757.042 345.462 756.845 345.456 756.636 345.425C756.441 345.392 756.245 345.318 756.049 345.204C755.863 345.074 755.684 344.903 755.511 344.689C755.351 344.474 755.215 344.2 755.102 343.868L753.572 337.375C753.572 337.375 753.571 337.335 753.571 337.253C753.567 337.159 753.582 337.048 753.613 336.921C753.645 336.793 753.705 336.675 753.794 336.564C753.881 336.441 754.014 336.349 754.193 336.291C754.407 336.199 754.585 336.174 754.728 336.217C754.882 336.244 755.006 336.296 755.101 336.374C755.209 336.45 755.29 336.524 755.343 336.596C755.397 336.667 755.423 336.703 755.423 336.703L756.331 340.585C756.524 341.295 756.69 341.889 756.828 342.365C756.964 342.829 757.103 343.122 757.247 343.246C757.389 343.207 757.59 342.962 757.848 342.51C758.105 342.046 758.4 341.377 758.734 340.506C758.939 339.902 759.116 339.335 759.267 338.808C759.415 338.267 759.537 337.765 759.631 337.302C759.725 336.838 759.803 336.398 759.865 335.981C759.865 335.981 759.871 335.939 759.884 335.856C759.907 335.757 759.949 335.648 760.009 335.529C760.082 335.408 760.185 335.302 760.318 335.211C760.462 335.104 760.654 335.043 760.895 335.028C761.149 335.01 761.339 335.051 761.465 335.151C761.589 335.237 761.675 335.344 761.725 335.47C761.787 335.595 761.815 335.712 761.807 335.821C761.81 335.916 761.812 335.963 761.812 335.963C761.778 336.388 761.72 336.825 761.636 337.273C761.553 337.721 761.455 338.165 761.343 338.604C761.231 339.044 761.11 339.471 760.98 339.887C760.861 340.287 760.731 340.662 760.59 341.012C760.213 342.026 759.832 342.858 759.446 343.508C759.057 344.145 758.675 344.626 758.299 344.949C757.933 345.257 757.576 345.422 757.228 345.443ZM750.827 346.571C750.641 346.591 750.443 346.585 750.235 346.554C750.039 346.521 749.844 346.447 749.648 346.333C749.462 346.203 749.29 346.03 749.13 345.815C748.97 345.599 748.834 345.325 748.721 344.993L747.111 338.514C747.111 338.514 747.104 338.475 747.09 338.396C747.087 338.302 747.102 338.191 747.133 338.064C747.165 337.936 747.225 337.817 747.314 337.707C747.414 337.581 747.573 337.485 747.792 337.419C748.008 337.341 748.187 337.323 748.33 337.365C748.484 337.392 748.608 337.445 748.703 337.523C748.811 337.598 748.886 337.673 748.926 337.747C748.977 337.806 749.002 337.836 749.002 337.836L749.949 341.71C750.129 342.423 750.288 343.018 750.426 343.494C750.562 343.958 750.702 344.251 750.846 344.375C750.988 344.336 751.188 344.091 751.447 343.639C751.704 343.174 751.999 342.506 752.333 341.635C752.537 341.03 752.715 340.464 752.866 339.937C753.014 339.396 753.135 338.894 753.23 338.43C753.324 337.967 753.402 337.527 753.464 337.11C753.464 337.11 753.47 337.068 753.483 336.985C753.506 336.886 753.547 336.777 753.608 336.658C753.681 336.537 753.791 336.429 753.937 336.336C754.08 336.229 754.273 336.168 754.514 336.153C754.755 336.138 754.938 336.18 755.064 336.279C755.201 336.363 755.294 336.469 755.343 336.596C755.393 336.722 755.413 336.84 755.406 336.95C755.409 337.044 755.41 337.091 755.41 337.091C755.377 337.517 755.319 337.954 755.235 338.402C755.152 338.85 755.054 339.293 754.942 339.733C754.83 340.172 754.709 340.6 754.579 341.015C754.46 341.416 754.33 341.79 754.189 342.14C753.812 343.154 753.431 343.987 753.045 344.637C752.669 345.272 752.293 345.751 751.917 346.075C751.539 346.385 751.175 346.551 750.827 346.571Z" fill="#FEEE91"/>
<path d="M754.612 321.831C733.224 315.393 695.749 323.728 677.889 335.811C669.755 341.314 655.49 355.619 667.3 364.668C669.384 366.264 671.78 367.436 674.214 368.387C700.997 378.853 734.465 371.405 758.868 358.014C762.507 356.017 766.041 353.785 769.172 351.046C771.513 348.997 773.701 346.584 775.337 343.93C780.128 336.16 777.375 329.675 769.942 325.114C761.325 319.826 750.771 319.577 740.956 320.152C732.373 320.655 723.94 321.948 715.561 323.838C699.847 327.382 681.795 331.796 670.095 343.166C664.986 348.132 660.234 357.657 666.413 363.598C673.108 370.036 686.244 370.187 695.07 370.238C718.881 370.377 755.016 361.855 774.083 347.111C776.139 345.522 778.239 344.007 779.99 342.085C781.374 340.565 782.658 338.885 783.72 337.124C791.241 324.645 769.003 321.554 761.378 321.694C737.389 322.135 701.909 322.925 682.137 336.489" stroke="#FEEE91" stroke-width="2" stroke-miterlimit="1.5" stroke-linecap="round" stroke-linejoin="round"/>
</svg>
