<svg width="40" height="40" viewBox="0 0 40 40" fill="none" xmlns="http://www.w3.org/2000/svg">
<rect width="40" height="40" rx="8" fill="#FEEE91" fill-opacity="0.3"/>
<path d="M20 17.25C18.4812 17.25 17.25 18.4812 17.25 20C17.25 21.5188 18.4812 22.75 20 22.75C21.5188 22.75 22.75 21.5188 22.75 20C22.75 18.4812 21.5188 17.25 20 17.25Z" fill="#FEEE91"/>
<path fill-rule="evenodd" clip-rule="evenodd" d="M20 9.25C20.4142 9.25 20.75 9.58579 20.75 10V11.2817C24.9842 11.6411 28.3589 15.0158 28.7183 19.25H30C30.4142 19.25 30.75 19.5858 30.75 20C30.75 20.4142 30.4142 20.75 30 20.75H28.7183C28.3589 24.9842 24.9842 28.3589 20.75 28.7183V30C20.75 30.4142 20.4142 30.75 20 30.75C19.5858 30.75 19.25 30.4142 19.25 30V28.7183C15.0158 28.3589 11.6411 24.9842 11.2817 20.75H10C9.58579 20.75 9.25 20.4142 9.25 20C9.25 19.5858 9.58579 19.25 10 19.25H11.2817C11.6411 15.0158 15.0158 11.6411 19.25 11.2817V10C19.25 9.58579 19.5858 9.25 20 9.25ZM12.75 20C12.75 24.0041 15.9959 27.25 20 27.25C24.0041 27.25 27.25 24.0041 27.25 20C27.25 15.9959 24.0041 12.75 20 12.75C15.9959 12.75 12.75 15.9959 12.75 20Z" fill="#FEEE91"/>
</svg>
