<svg width="1440" height="700" viewBox="0 0 1440 700" fill="none" xmlns="http://www.w3.org/2000/svg">
<path opacity="0.06" d="M-7 -120.308C0.508531 -28.014 41.8342 62.2556 110.213 135.761C154.749 183.627 269.755 285.457 337.303 201.403C368.828 162.178 368.971 19.5695 380.005 -13.5576C400.61 -75.3618 487.617 -70.7943 546.969 -41.0105C627.27 -0.725949 646.729 68.9657 669.255 138.634C679.486 170.278 685.074 204.417 672.178 235.425C659.282 266.41 623.487 292.874 583.709 290.896C532.84 288.4 499.138 238.368 512.952 198.084C526.765 157.799 575.542 130.582 625.694 123.236C667.708 117.091 712.501 122.2 751.963 108.827C827.335 83.2808 848.743 9.0214 882.876 -44.8954C908.21 -84.8975 945.81 -123.863 999 -135" stroke="white" stroke-width="16" stroke-miterlimit="10" stroke-linecap="round"/>
<path d="M41.7297 306.432C30.3167 310.274 21.2941 319.327 17.4774 330.766C13.6347 319.391 4.63823 310.394 -6.7298 306.568C4.68312 302.726 13.7057 293.673 17.5226 282.234C21.3652 293.61 30.3617 302.606 41.7297 306.432Z" stroke="white" stroke-width="4"/>
<path d="M971.332 479.874C946.022 486.067 926.11 506.046 919.969 531.414C913.758 506.165 893.894 486.298 868.667 480.126C893.977 473.933 913.889 453.954 920.03 428.586C926.242 453.835 946.106 473.702 971.332 479.874Z" stroke="#67C794" stroke-width="4"/>
</svg>
