<svg width="393" height="1090" viewBox="0 0 393 1090" fill="none" xmlns="http://www.w3.org/2000/svg">
<path opacity="0.06" d="M-10 -72.4818C-6.67863 -31.5344 11.6016 8.51479 41.8489 41.1265C61.5489 62.3628 112.422 107.541 142.301 70.2493C156.246 52.8467 156.309 -10.4234 161.19 -25.1206C170.305 -52.5408 208.792 -50.5144 235.046 -37.3004C270.567 -19.4277 279.175 11.4918 289.139 42.4009C293.664 56.44 296.136 71.5864 290.432 85.3435C284.727 99.0902 268.894 110.831 251.298 109.954C228.796 108.847 213.888 86.6493 219.998 68.7765C226.109 50.9038 247.685 38.8284 269.87 35.5694C288.454 32.843 308.268 35.1098 325.724 29.1765C359.065 17.8429 368.535 -15.1032 383.633 -39.024C394.839 -56.7714 411.472 -74.0591 435 -79" stroke="white" stroke-width="12" stroke-miterlimit="10" stroke-linecap="round"/>
<path d="M29.2157 361.948C21.3068 365.001 15.0154 371.314 11.9801 379.241C8.92962 371.362 2.6586 365.091 -5.21581 362.052C2.69304 358.999 8.98447 352.686 12.0199 344.759C15.0703 352.638 21.3413 358.909 29.2157 361.948Z" stroke="white" stroke-width="4"/>
<path d="M408.812 458.933C397.609 462.731 388.751 471.619 384.978 482.848C381.179 471.682 372.346 462.849 361.188 459.067C372.39 455.269 381.249 446.381 385.022 435.152C388.821 446.318 397.654 455.151 408.812 458.933Z" stroke="#67C794" stroke-width="4"/>
</svg>
