<svg width="133" height="72" viewBox="0 0 133 72" fill="none" xmlns="http://www.w3.org/2000/svg">
<path d="M30.958 46.0387C31.7412 45.8735 32.2313 45.6584 32.4283 45.3935C32.623 45.1155 32.552 44.7896 32.2152 44.4157C32.0647 44.2527 31.8527 44.087 31.5793 43.9186C31.3059 43.7502 31.0039 43.5732 30.6733 43.3878C30.3405 43.1893 30.0119 42.9764 29.6875 42.7493C29.3739 42.5067 29.1017 42.2298 28.8708 41.9185C28.653 41.6049 28.5148 41.2434 28.4562 40.834C28.3952 40.4115 28.4439 39.9968 28.6023 39.5897C28.7584 39.1696 29.0103 38.7935 29.3579 38.4614C29.7163 38.1139 30.1674 37.8313 30.7112 37.6135C31.2658 37.3803 31.91 37.2329 32.6438 37.1712C33.3884 37.0941 34.2183 37.117 35.1335 37.2399C35.1335 37.2399 35.1567 37.2561 35.203 37.2886C35.2471 37.3079 35.2946 37.3469 35.3455 37.4056C35.4096 37.462 35.4563 37.535 35.4857 37.6246C35.5281 37.7119 35.5335 37.8193 35.5019 37.9467C35.481 38.0587 35.4369 38.1545 35.3697 38.234C35.3133 38.2981 35.2492 38.3568 35.1774 38.4101C35.1032 38.4502 35.0399 38.4749 34.9874 38.4842C34.9348 38.4935 34.9086 38.4981 34.9086 38.4981C34.9086 38.4981 34.8352 38.5043 34.6885 38.5166C34.5417 38.5289 34.349 38.5494 34.1103 38.5779C33.8717 38.6065 33.6079 38.6462 33.319 38.6971C33.0409 38.7326 32.7532 38.7901 32.4558 38.8696C32.1562 38.936 31.8731 39.0198 31.6066 39.1209C31.3532 39.2198 31.1373 39.3391 30.9589 39.4788C30.6414 39.7515 30.4533 40.0283 30.3946 40.3095C30.3466 40.5752 30.4424 40.8494 30.6818 41.1321C30.9343 41.4125 31.3633 41.6956 31.9688 41.9815C32.616 42.2735 33.1497 42.6127 33.5698 42.9989C34.0031 43.3829 34.2942 43.8054 34.4432 44.2665C34.603 44.7122 34.579 45.1903 34.3712 45.7008C34.2275 46.0376 33.9563 46.3426 33.5577 46.616C33.1723 46.887 32.703 47.1052 32.15 47.2704C31.6077 47.4202 31.0408 47.5066 30.4492 47.5297C29.8552 47.5396 29.2802 47.465 28.7241 47.3058C28.168 47.1466 27.681 46.8805 27.2632 46.5074C27.2632 46.5074 27.2466 46.49 27.2134 46.4552C27.1933 46.4182 27.1644 46.3691 27.1266 46.3081C27.0995 46.2316 27.0856 46.1528 27.0849 46.0717C27.0949 45.9752 27.1455 45.8783 27.2367 45.7809C27.3124 45.6728 27.3951 45.6041 27.4847 45.5748C27.5851 45.53 27.6758 45.5072 27.7569 45.5064C27.8512 45.5034 27.9268 45.5103 27.984 45.5273C28.052 45.5289 28.086 45.5297 28.086 45.5297C28.086 45.5297 28.1609 45.5706 28.3107 45.6525C28.4737 45.7321 28.6926 45.8221 28.9676 45.9225C29.2402 46.0098 29.5422 46.0717 29.8735 46.108C30.218 46.1421 30.5795 46.1189 30.958 46.0387ZM41.0021 45.6892C40.3193 45.8096 39.701 45.7968 39.1472 45.6507C38.5911 45.4915 38.1107 45.2242 37.7061 44.8488C37.3145 44.471 37.0153 44.0026 36.8084 43.4433C36.6014 42.8841 36.5058 42.2646 36.5213 41.5849C36.543 40.8635 36.6845 40.1684 36.9456 39.4996C37.2176 38.8153 37.5757 38.197 38.0199 37.6449C38.4749 37.0772 39.0021 36.6119 39.6015 36.249C40.1986 35.8729 40.8308 35.6193 41.4982 35.4881C42.4568 35.3191 43.2759 35.3574 43.9555 35.6031C44.646 35.8334 45.1742 36.2953 45.5402 36.989C45.9039 37.6695 46.0737 38.5941 46.0496 39.7627C46.0341 40.4424 45.9011 41.1089 45.6508 41.7623C45.4113 42.4003 45.0683 42.9888 44.6217 43.5278C44.1752 44.0669 43.6469 44.5256 43.0366 44.904C42.4264 45.2824 41.7482 45.5441 41.0021 45.6892ZM41.1031 43.8436C41.5102 43.7719 41.9022 43.6147 42.2791 43.3723C42.6538 43.1167 42.9852 42.8077 43.2733 42.4455C43.5746 42.081 43.8153 41.6798 43.9953 41.2419C44.173 40.7908 44.263 40.3417 44.2654 39.8945C44.2933 39.1314 44.1934 38.5262 43.9656 38.079C43.7355 37.6186 43.4104 37.3104 42.9902 37.1543C42.5809 36.9828 42.107 36.9445 41.5687 37.0394C41.1616 37.1112 40.7796 37.2869 40.4228 37.5664C40.0636 37.8328 39.7434 38.1668 39.4622 38.5684C39.1941 38.9677 38.9801 39.4049 38.8201 39.8798C38.6579 40.3417 38.569 40.7974 38.5535 41.2469C38.5349 41.8324 38.6252 42.3445 38.8244 42.7832C39.0344 43.2065 39.3321 43.5128 39.7175 43.7021C40.1029 43.8914 40.5648 43.9386 41.1031 43.8436ZM45.969 44.8337C45.7458 44.8731 45.5615 44.865 45.4163 44.8093C45.2843 44.7514 45.1916 44.6865 45.1383 44.6146C45.085 44.5428 45.0584 44.5069 45.0584 44.5069C44.9813 43.5321 44.9316 42.5593 44.9093 41.5884C44.8848 40.6044 44.8961 39.5938 44.9434 38.5565C44.9906 37.5192 45.0715 36.4421 45.186 35.3252C45.186 35.3252 45.2118 35.2801 45.2636 35.1897C45.3154 35.0993 45.4077 35.0086 45.5405 34.9175C45.6842 34.8109 45.8819 34.7422 46.1337 34.7113C46.3724 34.6828 46.547 34.7129 46.6574 34.8018C46.781 34.8883 46.8686 35.0015 46.9204 35.1413C46.9698 35.2679 46.9972 35.385 47.0026 35.4923C47.0056 35.5866 47.0072 35.6337 47.0072 35.6337C46.9283 36.3381 46.8645 37.0127 46.8157 37.6577C46.7801 38.3003 46.7588 38.9471 46.7517 39.5983C46.7424 40.2362 46.7388 40.9071 46.741 41.6107C46.7564 42.312 46.7767 43.0802 46.8021 43.9151C46.8021 43.9151 46.7959 43.9568 46.7836 44.0402C46.7689 44.1105 46.7314 44.2051 46.6711 44.3241C46.6217 44.4275 46.5383 44.5303 46.4208 44.6322C46.3166 44.7318 46.1659 44.799 45.969 44.8337ZM49.5865 44.2162C49.3633 44.2555 49.1791 44.2474 49.0339 44.1918C48.8995 44.1207 48.7968 44.0372 48.7258 43.9415C48.6524 43.8325 48.6022 43.7399 48.5752 43.6634C48.5482 43.5869 48.5347 43.5487 48.5347 43.5487C48.4876 42.9748 48.4518 42.3109 48.4272 41.5571C48.4134 40.7878 48.4135 39.9822 48.4275 39.1403C48.4392 38.2853 48.4575 37.4291 48.4823 36.5718C48.5203 35.7121 48.5695 34.8776 48.6298 34.0681C48.6902 33.2587 48.7555 32.516 48.8259 31.8402C48.8259 31.8402 48.8333 31.8051 48.848 31.7348C48.8735 31.6491 48.9175 31.5533 48.9801 31.4475C49.0558 31.3394 49.1535 31.2409 49.2732 31.1521C49.4061 31.061 49.5799 31.01 49.7946 30.9992C50.0201 30.973 50.1935 30.9966 50.3148 31.07C50.4492 31.1411 50.5399 31.2334 50.587 31.3469C50.6473 31.4581 50.6855 31.5597 50.7017 31.6516C50.7179 31.7436 50.726 31.7895 50.726 31.7895C50.6718 32.3271 50.6219 32.9654 50.5763 33.7046C50.5437 34.4414 50.5139 35.232 50.4867 36.0762C50.4573 36.9073 50.4367 37.7503 50.425 38.6053C50.4133 39.4604 50.4047 40.2945 50.3991 41.1078C50.4044 41.9057 50.4178 42.6344 50.4394 43.2941C50.4394 43.2941 50.4266 43.3369 50.4011 43.4227C50.3864 43.4929 50.3555 43.5864 50.3084 43.703C50.259 43.8065 50.1755 43.9092 50.0581 44.0112C49.9407 44.1131 49.7835 44.1814 49.5865 44.2162ZM55.802 43.3233C54.9362 43.327 54.2434 43.1987 53.7236 42.9384C53.2015 42.6649 52.808 42.3145 52.5432 41.8874C52.276 41.4471 52.0949 40.9577 52 40.4194C51.9182 39.8787 51.877 39.3377 51.8763 38.7962C51.8771 38.1868 52.0027 37.5554 52.2531 36.902C52.5011 36.2355 52.8437 35.6064 53.281 35.0148C53.7313 34.4209 54.2671 33.9271 54.8881 33.5333C55.5223 33.1371 56.2248 32.8982 56.9956 32.8164C57.7665 32.7346 58.3906 32.7803 58.8679 32.9534C59.356 33.111 59.7298 33.3497 59.9893 33.6695C60.2487 33.9893 60.4263 34.3439 60.5221 34.7332C60.6178 35.1225 60.6641 35.5002 60.6609 35.8663C60.6454 36.546 60.4603 37.1472 60.1057 37.6701C59.7488 38.1798 59.2166 38.5783 58.5091 38.8655C58.2928 38.9442 58.0294 39.0245 57.7189 39.1064C57.4061 39.1751 57.0658 39.2418 56.6981 39.3067C56.3305 39.3715 55.9682 39.4286 55.6114 39.478C55.2677 39.525 54.9502 39.5675 54.659 39.6053C54.3678 39.6431 54.1303 39.6782 53.9465 39.7106C53.7735 39.7276 53.687 39.7361 53.687 39.7361C53.7124 40.1107 53.8155 40.4648 53.9962 40.7985C54.1877 41.1168 54.4672 41.3586 54.8349 41.5239C55.2156 41.6869 55.6852 41.7395 56.2437 41.6817C56.7318 41.6091 57.1902 41.5215 57.6189 41.4189C58.0476 41.3162 58.4149 41.2108 58.7208 41.1027C59.0398 40.9923 59.2877 40.9012 59.4646 40.8294C59.6415 40.7576 59.7299 40.7217 59.7299 40.7217C59.7299 40.7217 59.7628 40.7159 59.8284 40.7043C59.9049 40.6773 59.9902 40.6623 60.0845 40.6592C60.1787 40.6561 60.2776 40.6793 60.381 40.7287C60.4822 40.765 60.5652 40.852 60.6301 40.9894C60.7058 41.1115 60.7332 41.2285 60.7123 41.3405C60.7023 41.4371 60.6648 41.5317 60.5999 41.6243C60.5458 41.7016 60.496 41.7645 60.4504 41.8132C60.4156 41.8464 60.3983 41.863 60.3983 41.863C60.3983 41.863 60.3056 41.9132 60.1202 42.0136C59.9348 42.1139 59.6795 42.2402 59.3543 42.3923C59.0399 42.529 58.6862 42.6726 58.293 42.8231C57.8998 42.9737 57.4878 43.0937 57.0568 43.1833C56.6412 43.2836 56.223 43.3303 55.802 43.3233ZM53.708 38.4732L57.5812 37.7497C57.5812 37.7497 57.626 37.735 57.7156 37.7057C57.8029 37.6632 57.9153 37.6095 58.0528 37.5447C58.2034 37.4775 58.3482 37.3775 58.4873 37.2447C58.6263 37.1118 58.7464 36.9485 58.8477 36.7546C58.9465 36.5476 58.9979 36.3016 59.0018 36.0166C58.9996 35.5432 58.9193 35.1647 58.761 34.8812C58.6159 34.5954 58.361 34.417 57.9964 34.3458C57.6296 34.2616 57.1279 34.2959 56.4914 34.4487C56.0234 34.5584 55.609 34.7804 55.2482 35.1148C54.8983 35.4337 54.6047 35.8036 54.3675 36.2245C54.1304 36.6455 53.9534 37.0625 53.8367 37.4757C53.7177 37.8758 53.6748 38.2083 53.708 38.4732ZM75.3931 39.2799C75.1715 39.2513 75.0043 39.186 74.8915 39.084C74.7919 38.9797 74.7185 38.8708 74.6714 38.7573C74.6351 38.6283 74.6155 38.5167 74.6124 38.4224C74.6201 38.3128 74.624 38.2579 74.624 38.2579C74.784 37.0924 74.8564 36.0439 74.8411 35.1124C74.8366 34.1655 74.6907 33.4534 74.4034 32.976C74.1471 32.5202 73.8494 32.214 73.5103 32.0571C73.169 31.8871 72.8036 31.85 72.4143 31.9457C72.0359 32.026 71.6574 32.2214 71.2788 32.5318C70.8177 32.911 70.46 33.3396 70.2058 33.8177C69.9517 34.2957 69.7612 34.7897 69.6345 35.2994C69.5208 35.8068 69.4574 36.2919 69.4442 36.7545C69.4396 37.1886 69.4345 37.5822 69.429 37.9351C69.4236 38.2881 69.4243 38.5994 69.4312 38.8689C69.4381 39.1385 69.4435 39.3609 69.4473 39.5363C69.4473 39.5363 69.4454 39.5637 69.4415 39.6185C69.4508 39.6711 69.4361 39.7413 69.3975 39.8294C69.372 39.9151 69.3125 40.0001 69.219 40.0842C69.1256 40.1684 68.9881 40.2333 68.8065 40.2788C68.6513 40.3197 68.5142 40.3101 68.3953 40.2498C68.2763 40.1895 68.1836 40.1246 68.1172 40.0551C68.0508 39.9856 68.0176 39.9508 68.0176 39.9508C67.8709 39.733 67.7975 39.509 67.7976 39.2788C67.7976 39.0487 67.8061 38.7899 67.8232 38.5026C67.8533 38.213 67.8468 37.8689 67.8036 37.4703C67.7836 36.9729 67.7783 36.5203 67.7876 36.1125C67.8077 35.6892 67.8456 35.2899 67.9013 34.9145C67.9678 34.5237 68.0651 34.1545 68.1934 33.807C68.3217 33.4594 68.497 33.1103 68.7195 32.7597C68.9876 32.3604 69.314 31.9847 69.6987 31.6326C70.0834 31.2804 70.5036 30.9761 70.9593 30.7198C71.4151 30.4634 71.8836 30.2793 72.3648 30.1673C72.8591 30.0531 73.3434 30.0354 73.8176 30.1142C74.1451 30.2054 74.461 30.346 74.7653 30.5361C75.0672 30.713 75.3445 30.9417 75.597 31.2221C75.8627 31.5002 76.0862 31.8466 76.2677 32.2614C76.46 32.6608 76.6124 33.1416 76.7251 33.7039C76.8478 34.3998 76.8875 35.1239 76.8441 35.8762C76.8139 36.6262 76.7231 37.4546 76.5715 38.3613C76.5715 38.3613 76.5599 38.4107 76.5368 38.5096C76.5136 38.6085 76.4587 38.7197 76.3722 38.8433C76.2988 38.9645 76.1825 39.073 76.0234 39.1688C75.8751 39.2491 75.665 39.2861 75.3931 39.2799ZM68.7196 40.8222C68.5334 40.8415 68.3755 40.8287 68.2457 40.7839C68.1268 40.7236 68.033 40.6522 67.9642 40.5695C67.8932 40.4737 67.8387 40.3953 67.8009 40.3343C67.7762 40.271 67.7638 40.2393 67.7638 40.2393C67.7045 39.5187 67.6617 38.8154 67.6355 38.1295C67.6225 37.4413 67.6237 36.7574 67.6393 36.0777C67.6525 35.3849 67.682 34.6689 67.7276 33.9297C67.7864 33.1882 67.858 32.4039 67.9423 31.5767C67.9423 31.5767 67.9496 31.5416 67.9643 31.4713C67.9898 31.3855 68.0339 31.2898 68.0964 31.184C68.159 31.0782 68.2502 30.9808 68.3699 30.892C68.5005 30.7878 68.6719 30.7237 68.8843 30.6998C69.1207 30.6581 69.2995 30.674 69.4208 30.7474C69.5551 30.8184 69.647 30.9173 69.6965 31.044C69.7567 31.1552 69.7949 31.2568 69.8111 31.3487C69.8404 31.4383 69.8551 31.4831 69.8551 31.4831C69.787 32.1721 69.7298 32.8456 69.6834 33.5036C69.6501 34.1594 69.6256 34.8271 69.6101 35.5068C69.5946 36.1865 69.5902 36.8913 69.5971 37.6212C69.6016 38.3379 69.6196 39.093 69.6512 39.8862C69.6512 39.8862 69.6384 39.9291 69.6129 40.0148C69.6006 40.0982 69.5643 40.1994 69.504 40.3183C69.4414 40.4241 69.3449 40.5292 69.2143 40.6334C69.0969 40.7353 68.932 40.7983 68.7196 40.8222ZM82.7231 38.3327C82.0272 38.4554 81.3946 38.4383 80.8254 38.2814C80.2693 38.1222 79.7901 37.8615 79.3877 37.4992C78.9831 37.1238 78.6773 36.6564 78.4704 36.0972C78.2634 35.538 78.1677 34.9185 78.1833 34.2388C78.1988 33.5591 78.3372 32.8849 78.5983 32.216C78.8572 31.534 79.2141 30.9092 79.6691 30.3416C80.1241 29.774 80.649 29.2955 81.2438 28.9063C81.8517 28.5148 82.4971 28.2589 83.1799 28.1385C83.8627 28.0181 84.4972 28.0077 85.0834 28.1075C85.6696 28.2072 86.1759 28.4293 86.6022 28.7739C87.0393 29.1029 87.3714 29.5657 87.5984 30.162C87.8254 30.7583 87.9288 31.4982 87.9086 32.3818C87.893 33.0615 87.7404 33.7315 87.4507 34.3919C87.1741 35.0499 86.7928 35.6519 86.3069 36.1979C85.821 36.7439 85.2729 37.2061 84.6627 37.5845C84.0525 37.9629 83.4059 38.2123 82.7231 38.3327ZM82.7489 36.5207C83.1559 36.4489 83.5479 36.2918 83.9249 36.0493C84.2995 35.7937 84.6375 35.4836 84.9388 35.1191C85.2401 34.7546 85.4753 34.3611 85.6445 33.9386C85.8245 33.5007 85.9223 33.057 85.9378 32.6075C85.9526 31.8467 85.8461 31.2427 85.6183 30.7954C85.3905 30.3482 85.0665 30.0465 84.6464 29.8904C84.2239 29.7212 83.7435 29.6841 83.2051 29.779C82.7981 29.8508 82.4096 30.0276 82.0395 30.3095C81.6804 30.5759 81.3602 30.9099 81.079 31.3115C80.8086 31.6977 80.5922 32.1217 80.43 32.5835C80.2677 33.0454 80.1788 33.5011 80.1633 33.9506C80.1578 34.5337 80.2535 35.0381 80.4504 35.4637C80.6605 35.887 80.9582 36.1933 81.3436 36.3826C81.7421 36.5696 82.2105 36.6156 82.7489 36.5207ZM99.2281 35.4427C99.042 35.462 98.8447 35.4562 98.6361 35.4252C98.4407 35.392 98.2449 35.3182 98.0488 35.2039C97.8634 35.0741 97.6842 34.9026 97.5113 34.6894C97.3514 34.4739 97.2151 34.2 97.1024 33.8679L95.5717 27.3751C95.5717 27.3751 95.5713 27.3345 95.5705 27.2534C95.5675 27.1592 95.5818 27.0484 95.6134 26.9209C95.6451 26.7935 95.7054 26.6745 95.7942 26.5641C95.8808 26.4405 96.0136 26.3494 96.1928 26.2907C96.4068 26.1989 96.5852 26.1742 96.7281 26.2167C96.8818 26.2437 97.0061 26.2963 97.1011 26.3743C97.2092 26.45 97.2899 26.5238 97.3432 26.5956C97.3965 26.6674 97.4232 26.7034 97.4232 26.7034L98.3309 30.5847C98.5239 31.2953 98.6895 31.8889 98.8277 32.3655C98.9636 32.8289 99.1033 33.1225 99.247 33.2461C99.3891 33.2075 99.5896 32.9623 99.8484 32.5104C100.105 32.0455 100.4 31.3774 100.734 30.5062C100.939 29.9015 101.116 29.3354 101.267 28.8079C101.415 28.2672 101.537 27.7652 101.631 27.3018C101.725 26.8384 101.803 26.3981 101.865 25.981C101.865 25.981 101.871 25.9393 101.884 25.8559C101.907 25.757 101.949 25.6481 102.009 25.5292C102.082 25.408 102.185 25.3018 102.318 25.2106C102.462 25.1041 102.654 25.0431 102.895 25.0277C103.149 25.0099 103.339 25.0509 103.465 25.1506C103.589 25.2371 103.675 25.3437 103.725 25.4704C103.787 25.5947 103.815 25.7117 103.807 25.8214C103.81 25.9157 103.812 25.9628 103.812 25.9628C103.778 26.3883 103.72 26.8251 103.636 27.2731C103.553 27.7211 103.455 28.1648 103.343 28.6042C103.231 29.0437 103.11 29.4712 102.98 29.8867C102.861 30.2868 102.731 30.6618 102.59 31.0116C102.213 32.0257 101.832 32.8579 101.446 33.5082C101.057 34.1454 100.675 34.6257 100.299 34.9493C99.9334 35.2574 99.5765 35.4219 99.2281 35.4427ZM92.8269 36.5714C92.6408 36.5907 92.4434 36.5849 92.2349 36.554C92.0395 36.5207 91.8437 36.4469 91.6475 36.3326C91.4622 36.2028 91.2896 36.0301 91.1297 35.8146C90.9698 35.5991 90.8336 35.3253 90.7208 34.9931L89.1113 28.5142C89.1113 28.5142 89.1044 28.4748 89.0905 28.396C89.0874 28.3018 89.1017 28.191 89.1334 28.0635C89.1651 27.9361 89.2254 27.8171 89.3142 27.7067C89.4138 27.5808 89.573 27.4851 89.7916 27.4195C90.0078 27.3407 90.1874 27.3226 90.3303 27.3651C90.484 27.3921 90.6084 27.4447 90.7033 27.5227C90.8115 27.5984 90.8856 27.6733 90.9258 27.7475C90.9767 27.8062 91.0022 27.8355 91.0022 27.8355L91.9494 31.7099C92.1292 32.4229 92.2883 33.0176 92.4265 33.4942C92.5623 33.9576 92.7021 34.2512 92.8457 34.3748C92.9879 34.3362 93.1883 34.091 93.4471 33.6392C93.7036 33.1742 93.9988 32.5062 94.3326 31.635C94.5373 31.0302 94.7151 30.4641 94.8657 29.9366C95.0141 29.3959 95.1355 28.8939 95.2297 28.4305C95.324 27.9671 95.4021 27.5268 95.464 27.1097C95.464 27.1097 95.4701 27.068 95.4825 26.9846C95.5057 26.8858 95.5474 26.7769 95.6077 26.6579C95.6811 26.5367 95.7908 26.4293 95.9368 26.3359C96.0804 26.2293 96.2728 26.1683 96.5138 26.1529C96.7547 26.1375 96.9382 26.1796 97.0641 26.2793C97.2008 26.3635 97.2938 26.4689 97.3432 26.5956C97.3926 26.7223 97.4135 26.8405 97.4057 26.9501C97.4088 27.0444 97.4104 27.0915 97.4104 27.0915C97.3771 27.5171 97.3187 27.9538 97.2352 28.4018C97.1518 28.8498 97.054 29.2935 96.9419 29.733C96.8299 30.1724 96.7089 30.5999 96.5791 31.0154C96.4601 31.4155 96.3299 31.7905 96.1885 32.1404C95.8122 33.1544 95.4309 33.9866 95.0447 34.6369C94.6692 35.2718 94.2934 35.751 93.9172 36.0745C93.5387 36.385 93.1752 36.5506 92.8269 36.5714Z" fill="#FEEE91"/>
<path d="M96.6123 11.8314C75.2237 5.39302 37.7487 13.7282 19.8889 25.8114C11.755 31.3145 -2.51045 45.6195 9.30048 54.6678C11.3836 56.2638 13.7805 57.4361 16.2141 58.3872C42.9971 68.853 76.4652 61.4049 100.868 48.014C104.507 46.0169 108.041 43.7848 111.172 41.0459C113.513 38.9974 115.701 36.5844 117.337 33.9301C122.128 26.1595 119.375 19.675 111.942 15.114C103.325 9.82586 92.771 9.57708 82.9559 10.1524C74.3732 10.6555 65.9405 11.9484 57.5613 13.8382C41.8467 17.3823 23.7946 21.7956 12.0954 33.1658C6.98557 38.1321 2.23431 47.6568 8.41264 53.5982C15.1076 60.0363 28.2436 60.187 37.07 60.2384C60.8813 60.377 97.0158 51.8549 116.083 37.1115C118.139 35.5215 120.239 34.0075 121.99 32.0847C123.374 30.5655 124.658 28.8848 125.72 27.1239C133.241 14.645 111.003 11.5537 103.378 11.694C79.3894 12.1354 43.9089 12.9246 24.1366 26.4888" stroke="#FEEE91" stroke-width="2" stroke-miterlimit="1.5" stroke-linecap="round" stroke-linejoin="round"/>
</svg>
