<svg width="133" height="72" viewBox="0 0 133 72" fill="none" xmlns="http://www.w3.org/2000/svg">
<path d="M31.7993 46.7659C31.5367 46.8122 31.3251 46.8022 31.1645 46.7357C31.0169 46.667 30.9065 46.5781 30.8331 46.4692C30.7729 46.358 30.7281 46.2576 30.6988 46.168C30.6826 46.076 30.6745 46.0301 30.6745 46.0301C30.6537 45.2214 30.6399 44.4521 30.6331 43.7222C30.6262 42.9923 30.6306 42.2875 30.6461 41.6078C30.6594 40.915 30.6749 40.2353 30.6928 39.5687C30.7237 38.8999 30.7679 38.2287 30.8251 37.5552C30.9218 36.8747 31.0817 36.2846 31.305 35.7849C31.5391 35.2698 31.8277 34.8331 32.1706 34.4747C32.5244 34.1009 32.9238 33.7936 33.3687 33.5527C33.8137 33.3118 34.2899 33.133 34.7973 33.0165C35.2986 32.9416 35.7535 32.9494 36.1621 33.0398C36.5684 33.1171 36.9248 33.2573 37.2314 33.4605C37.5357 33.6506 37.7944 33.8893 38.0076 34.1766C38.0076 34.1766 38.0133 34.2095 38.0249 34.2751C38.0473 34.3253 38.0546 34.4053 38.0469 34.5149C38.0368 34.6115 37.9951 34.7204 37.9217 34.8416C37.8592 34.9474 37.7495 35.0548 37.5926 35.1637C37.4598 35.2548 37.3254 35.2988 37.1894 35.2957C37.0512 35.2795 36.9392 35.2586 36.8535 35.2331C36.7654 35.1945 36.7214 35.1751 36.7214 35.1751C36.4411 34.9673 36.1503 34.8155 35.8491 34.7197C35.561 34.6216 35.2431 34.6235 34.8956 34.7254C34.3448 34.9037 33.8856 35.2555 33.5179 35.7806C33.1633 36.3035 32.9469 36.9576 32.8688 37.7431C32.7999 38.8113 32.75 39.795 32.7189 40.694C32.6856 41.5799 32.6685 42.4427 32.6676 43.2822C32.6644 44.1087 32.6693 44.9811 32.6823 45.8994C32.6823 45.8994 32.6761 45.9412 32.6637 46.0246C32.6491 46.0949 32.6104 46.1829 32.5478 46.2887C32.4961 46.3791 32.4115 46.4752 32.2941 46.5772C32.1744 46.666 32.0094 46.7289 31.7993 46.7659ZM29.9362 39.8849C29.923 39.8872 29.8616 39.8845 29.752 39.8768C29.6423 39.8691 29.5345 39.8339 29.4287 39.7713C29.3229 39.7087 29.2584 39.6118 29.2353 39.4805C29.223 39.3337 29.2415 39.2086 29.291 39.1051C29.3535 38.9993 29.4196 38.9132 29.4891 38.8468C29.5694 38.7649 29.6413 38.7116 29.7046 38.6869C29.7656 38.6491 29.7962 38.6302 29.7962 38.6302C30.3755 38.4603 30.9362 38.3005 31.4785 38.1508C32.0338 37.9987 32.5849 37.8609 33.1318 37.7374C33.6918 37.6116 34.2607 37.4977 34.8384 37.3959C35.4162 37.294 36.0291 37.1994 36.6771 37.1123C36.6771 37.1123 36.72 37.125 36.8057 37.1505C36.9023 37.1606 37.0088 37.1892 37.1255 37.2363C37.2421 37.2834 37.3436 37.3603 37.4301 37.4669C37.5166 37.5735 37.5564 37.7222 37.5494 37.913C37.5378 38.0775 37.4941 38.2138 37.4184 38.3219C37.3427 38.43 37.2558 38.513 37.1577 38.571C37.0596 38.6289 36.9723 38.6713 36.8959 38.6984C36.8325 38.7231 36.8008 38.7354 36.8008 38.7354C35.6407 38.9129 34.4775 39.1113 33.3112 39.3304C32.1556 39.5342 31.0307 39.719 29.9362 39.8849ZM42.7524 44.7331C42.0565 44.8558 41.4239 44.8387 40.8547 44.6818C40.2986 44.5226 39.8194 44.2619 39.417 43.8996C39.0124 43.5242 38.7066 43.0568 38.4996 42.4976C38.2927 41.9384 38.197 41.3189 38.2126 40.6392C38.2281 39.9595 38.3665 39.2853 38.6276 38.6164C38.8865 37.9344 39.2434 37.3096 39.6984 36.742C40.1534 36.1744 40.6783 35.6959 41.2731 35.3067C41.881 34.9152 42.5264 34.6593 43.2092 34.5389C43.892 34.4185 44.5265 34.4081 45.1127 34.5079C45.6989 34.6076 46.2052 34.8297 46.6315 35.1743C47.0686 35.5033 47.4007 35.9661 47.6277 36.5624C47.8547 37.1587 47.9581 37.8986 47.9379 38.7822C47.9223 39.4619 47.7697 40.1319 47.4799 40.7923C47.2033 41.4503 46.8221 42.0523 46.3362 42.5983C45.8503 43.1443 45.3022 43.6065 44.692 43.9849C44.0817 44.3633 43.4352 44.6127 42.7524 44.7331ZM42.7782 42.9211C43.1852 42.8493 43.5772 42.6922 43.9542 42.4497C44.3288 42.1941 44.6668 41.884 44.9681 41.5195C45.2693 41.155 45.5046 40.7615 45.6738 40.339C45.8538 39.9011 45.9516 39.4574 45.9671 39.0079C45.9819 38.2471 45.8754 37.6431 45.6476 37.1958C45.4198 36.7486 45.0958 36.4469 44.6757 36.2908C44.2532 36.1216 43.7728 36.0845 43.2344 36.1794C42.8274 36.2512 42.4388 36.428 42.0688 36.7099C41.7096 36.9763 41.3894 37.3103 41.1082 37.7119C40.8379 38.0981 40.6215 38.5221 40.4593 38.9839C40.297 39.4458 40.2081 39.9015 40.1926 40.351C40.1871 40.9341 40.2828 41.4385 40.4797 41.8641C40.6897 42.2874 40.9875 42.5937 41.3728 42.783C41.7714 42.97 42.2398 43.016 42.7782 42.9211ZM50.3118 41.1256C50.1828 41.1619 50.0743 41.1607 49.9862 41.1221C49.8959 41.0703 49.8229 41.0019 49.7673 40.917C49.7248 40.8297 49.6889 40.7412 49.6596 40.6516C49.6279 40.5489 49.6063 40.4647 49.5947 40.3991C49.594 40.318 49.5936 40.2774 49.5936 40.2774C49.5542 40.0542 49.5241 39.8835 49.5033 39.7653C49.4801 39.634 49.4659 39.5147 49.4605 39.4073C49.4659 39.2845 49.4733 39.1343 49.4825 38.9566C49.505 38.7767 49.5224 38.5299 49.5348 38.2163C49.5951 37.4069 49.7636 36.6731 50.0402 36.0151C50.3168 35.3571 50.6896 34.7836 51.1585 34.2948C51.6274 33.8059 52.1739 33.4117 52.798 33.1121C53.3526 32.8789 53.8632 32.7415 54.3297 32.6999C54.8094 32.6559 55.2415 32.688 55.6261 32.7962C56.0085 32.8913 56.3475 33.0481 56.6433 33.2667C56.6433 33.2667 56.6676 33.2895 56.7163 33.3351C56.7649 33.3807 56.8171 33.446 56.8727 33.5309C56.9414 33.6136 56.9862 33.714 57.007 33.8322C57.0387 33.9349 57.0386 34.05 57.007 34.1774C56.9753 34.3049 56.8845 34.4427 56.7346 34.591C56.5979 34.737 56.4442 34.825 56.2735 34.8551C56.1136 34.8697 55.9557 34.857 55.7996 34.8168C55.6436 34.7766 55.515 34.7384 55.4139 34.702C55.3104 34.6526 55.2586 34.6279 55.2586 34.6279C54.9721 34.4618 54.6384 34.4123 54.2576 34.4794C53.8877 34.5311 53.5022 34.6871 53.1013 34.9473C52.5784 35.2832 52.1593 35.7092 51.8441 36.2251C51.5397 36.7255 51.3423 37.2951 51.2518 37.9339C51.2178 38.2783 51.1865 38.5614 51.1579 38.7831C51.1269 38.9916 51.1045 39.1716 51.0906 39.323C51.0875 39.4589 51.0855 39.6014 51.0847 39.7505C51.0839 39.8995 51.0847 40.0957 51.087 40.339C51.087 40.339 51.0688 40.3896 51.0325 40.4908C50.9962 40.592 50.9216 40.7067 50.8088 40.8349C50.7069 40.9476 50.5412 41.0445 50.3118 41.1256ZM50.33 43.4172C50.1439 43.4365 49.9859 43.4238 49.8562 43.3789C49.7372 43.3187 49.6368 43.2484 49.555 43.168C49.4839 43.0723 49.436 42.9927 49.4113 42.9294C49.3866 42.866 49.3743 42.8344 49.3743 42.8344C49.3149 42.1137 49.2721 41.4105 49.246 40.7246C49.2198 40.0387 49.2145 39.3559 49.23 38.6762C49.2564 37.9811 49.2924 37.2639 49.3381 36.5248C49.3969 35.7833 49.4684 34.999 49.5527 34.1718C49.5527 34.1718 49.5601 34.1366 49.5748 34.0663C49.6003 33.9806 49.6377 33.886 49.6872 33.7825C49.7498 33.6767 49.8475 33.5782 49.9803 33.4871C50.1109 33.3828 50.2824 33.3188 50.4948 33.2949C50.718 33.2555 50.8968 33.2714 51.0312 33.3424C51.1656 33.4135 51.2575 33.5124 51.3069 33.6391C51.3671 33.7503 51.4053 33.8519 51.4215 33.9438C51.4509 34.0334 51.4655 34.0782 51.4655 34.0782C51.3975 34.7671 51.3402 35.4406 51.2938 36.0987C51.2605 36.7544 51.2361 37.4222 51.2205 38.1019C51.205 38.7815 51.2006 39.4863 51.2075 40.2162C51.212 40.933 51.2301 41.688 51.2616 42.4813C51.2616 42.4813 51.2489 42.5241 51.2234 42.6098C51.211 42.6933 51.1747 42.7944 51.1144 42.9134C51.0518 43.0192 50.9553 43.1242 50.8247 43.2285C50.7073 43.3304 50.5424 43.3933 50.33 43.4172ZM66.4023 40.6645C66.1396 40.7108 65.928 40.7007 65.7674 40.6343C65.6199 40.5655 65.5094 40.4767 65.4361 40.3678C65.3758 40.2565 65.331 40.1561 65.3017 40.0665C65.2855 39.9746 65.2774 39.9287 65.2774 39.9287C65.2567 39.12 65.2429 38.3507 65.236 37.6208C65.2292 36.8909 65.2335 36.1861 65.249 35.5064C65.2623 34.8136 65.2778 34.1339 65.2957 33.4673C65.3267 32.7984 65.3708 32.1273 65.428 31.4537C65.5247 30.7733 65.6846 30.1832 65.9079 29.6835C66.142 29.1684 66.4306 28.7316 66.7736 28.3733C67.1274 27.9995 67.5267 27.6922 67.9716 27.4512C68.4166 27.2103 68.8928 27.0316 69.4002 26.915C69.9015 26.8402 70.3564 26.848 70.765 26.9384C71.1713 27.0157 71.5277 27.1559 71.8343 27.3591C72.1386 27.5491 72.3973 27.7878 72.6105 28.0752C72.6105 28.0752 72.6163 28.108 72.6278 28.1737C72.6502 28.2239 72.6576 28.3038 72.6498 28.4135C72.6398 28.5101 72.598 28.619 72.5246 28.7402C72.4621 28.846 72.3524 28.9534 72.1956 29.0622C72.0627 29.1534 71.9283 29.1974 71.7924 29.1943C71.6541 29.178 71.5421 29.1572 71.4564 29.1317C71.3683 29.093 71.3243 29.0737 71.3243 29.0737C71.044 28.8659 70.7532 28.7141 70.452 28.6183C70.1639 28.5201 69.8461 28.522 69.4985 28.6239C68.9477 28.8023 68.4885 29.154 68.1208 29.6792C67.7662 30.202 67.5498 30.8562 67.4717 31.6417C67.4028 32.7099 67.3529 33.6935 67.3219 34.5926C67.2885 35.4785 67.2714 36.3412 67.2705 37.1808C67.2673 38.0073 67.2722 38.8797 67.2852 39.798C67.2852 39.798 67.279 39.8397 67.2667 39.9231C67.252 39.9934 67.2133 40.0815 67.1508 40.1873C67.099 40.2776 67.0144 40.3738 66.897 40.4757C66.7773 40.5645 66.6124 40.6275 66.4023 40.6645ZM64.5391 33.7835C64.526 33.7858 64.4645 33.7831 64.3549 33.7754C64.2452 33.7676 64.1375 33.7325 64.0316 33.6699C63.9258 33.6073 63.8614 33.5104 63.8382 33.3791C63.8259 33.2323 63.8444 33.1072 63.8939 33.0037C63.9564 32.8979 64.0225 32.8118 64.092 32.7454C64.1724 32.6635 64.2442 32.6102 64.3075 32.5855C64.3686 32.5477 64.3991 32.5288 64.3991 32.5288C64.9784 32.3589 65.5391 32.1991 66.0814 32.0493C66.6367 31.8973 67.1879 31.7595 67.7347 31.636C68.2947 31.5101 68.8636 31.3963 69.4413 31.2944C70.0191 31.1926 70.632 31.098 71.28 31.0108C71.28 31.0108 71.3229 31.0236 71.4086 31.0491C71.5052 31.0591 71.6117 31.0877 71.7284 31.1349C71.845 31.182 71.9466 31.2589 72.033 31.3655C72.1195 31.4721 72.1593 31.6207 72.1523 31.8115C72.1407 31.976 72.097 32.1124 72.0213 32.2205C71.9456 32.3286 71.8587 32.4116 71.7606 32.4695C71.6625 32.5275 71.5752 32.5699 71.4988 32.5969C71.4354 32.6217 71.4038 32.634 71.4038 32.634C70.2436 32.8115 69.0804 33.0098 67.9141 33.229C66.7586 33.4328 65.6336 33.6176 64.5391 33.7835ZM74.1818 36.9167C74.0528 36.9529 73.9443 36.9518 73.8563 36.9131C73.7659 36.8614 73.6929 36.793 73.6373 36.708C73.5949 36.6208 73.559 36.5323 73.5296 36.4427C73.498 36.34 73.4764 36.2558 73.4648 36.1901C73.464 36.109 73.4636 36.0685 73.4636 36.0685C73.4243 35.8453 73.3942 35.6746 73.3733 35.5564C73.3502 35.4251 73.3359 35.3057 73.3305 35.1984C73.3359 35.0756 73.3433 34.9254 73.3526 34.7477C73.375 34.5677 73.3924 34.321 73.4048 34.0074C73.4652 33.1979 73.6337 32.4642 73.9103 31.8062C74.1869 31.1481 74.5596 30.5747 75.0285 30.0859C75.4974 29.597 76.044 29.2028 76.6681 28.9032C77.2227 28.67 77.7332 28.5326 78.1998 28.4909C78.6794 28.447 79.1116 28.4791 79.4962 28.5873C79.8785 28.6823 80.2176 28.8392 80.5133 29.0578C80.5133 29.0578 80.5377 29.0806 80.5863 29.1262C80.635 29.1718 80.6871 29.237 80.7427 29.322C80.8114 29.4047 80.8562 29.5051 80.8771 29.6232C80.9087 29.726 80.9087 29.8411 80.877 29.9685C80.8453 30.0959 80.7545 30.2338 80.6047 30.3821C80.468 30.528 80.3142 30.6161 80.1435 30.6462C79.9837 30.6608 79.8257 30.648 79.6697 30.6079C79.5137 30.5677 79.3851 30.5294 79.2839 30.4931C79.1804 30.4437 79.1287 30.4189 79.1287 30.4189C78.8421 30.2528 78.5085 30.2034 78.1277 30.2705C77.7577 30.3222 77.3723 30.4782 76.9714 30.7384C76.4484 31.0743 76.0293 31.5002 75.7141 32.0161C75.4098 32.5166 75.2123 33.0862 75.1219 33.7249C75.0878 34.0694 75.0565 34.3525 75.0279 34.5742C74.997 34.7827 74.9746 34.9627 74.9606 35.114C74.9575 35.25 74.9556 35.3925 74.9548 35.5415C74.954 35.6906 74.9547 35.8868 74.957 36.1301C74.957 36.1301 74.9389 36.1807 74.9025 36.2819C74.8662 36.383 74.7917 36.4977 74.6789 36.6259C74.5769 36.7387 74.4112 36.8356 74.1818 36.9167ZM74.2 39.2083C74.0139 39.2276 73.856 39.2148 73.7262 39.17C73.6073 39.1098 73.5069 39.0395 73.425 38.9591C73.354 38.8633 73.3061 38.7838 73.2814 38.7204C73.2567 38.6571 73.2443 38.6254 73.2443 38.6254C73.1849 37.9048 73.1422 37.2015 73.116 36.5156C73.0898 35.8298 73.0845 35.147 73.1001 34.4673C73.1264 33.7722 73.1624 33.055 73.2081 32.3158C73.2669 31.5744 73.3385 30.79 73.4228 29.9628C73.4228 29.9628 73.4301 29.9277 73.4448 29.8574C73.4703 29.7717 73.5078 29.6771 73.5572 29.5736C73.6198 29.4678 73.7175 29.3693 73.8504 29.2782C73.9809 29.1739 74.1524 29.1098 74.3648 29.0859C74.588 29.0466 74.7668 29.0624 74.9012 29.1335C75.0356 29.2046 75.1275 29.3034 75.1769 29.4301C75.2372 29.5414 75.2754 29.6429 75.2916 29.7348C75.3209 29.8244 75.3356 29.8692 75.3356 29.8692C75.2675 30.5582 75.2103 31.2317 75.1638 31.8898C75.1305 32.5455 75.1061 33.2132 75.0906 33.8929C75.075 34.5726 75.0707 35.2774 75.0775 36.0073C75.0821 36.7241 75.1001 37.4791 75.1317 38.2723C75.1317 38.2723 75.1189 38.3152 75.0934 38.4009C75.081 38.4843 75.0447 38.5855 74.9845 38.7044C74.9219 38.8103 74.8253 38.9153 74.6948 39.0195C74.5774 39.1215 74.4125 39.1844 74.2 39.2083ZM85.2487 37.4835C84.3829 37.4873 83.6901 37.359 83.1703 37.0986C82.6482 36.8251 82.2547 36.4748 81.9899 36.0476C81.7227 35.6073 81.5416 35.118 81.4467 34.5796C81.3649 34.0389 81.3236 33.4979 81.3229 32.9565C81.3238 32.347 81.4494 31.7156 81.6997 31.0622C81.9478 30.3957 82.2904 29.7667 82.7277 29.1751C83.178 28.5812 83.7138 28.0873 84.3348 27.6935C84.969 27.2974 85.6715 27.0584 86.4423 26.9766C87.2132 26.8949 87.8373 26.9405 88.3146 27.1136C88.8027 27.2712 89.1765 27.51 89.436 27.8298C89.6954 28.1496 89.873 28.5041 89.9688 28.8934C90.0645 29.2827 90.1108 29.6604 90.1076 30.0265C90.0921 30.7062 89.907 31.3075 89.5524 31.8303C89.1955 32.34 88.6633 32.7385 87.9557 33.0257C87.7395 33.1045 87.4761 33.1848 87.1656 33.2666C86.8527 33.3353 86.5125 33.4021 86.1448 33.4669C85.7772 33.5317 85.4149 33.5888 85.0581 33.6382C84.7144 33.6853 84.3969 33.7277 84.1057 33.7655C83.8145 33.8033 83.577 33.8384 83.3932 33.8709C83.2202 33.8878 83.1337 33.8963 83.1337 33.8963C83.1591 34.2709 83.2622 34.6251 83.4429 34.9588C83.6344 35.277 83.9139 35.5188 84.2816 35.6841C84.6623 35.8472 85.1319 35.8997 85.6904 35.8419C86.1785 35.7694 86.6369 35.6818 87.0656 35.5791C87.4943 35.4764 87.8616 35.371 88.1675 35.263C88.4865 35.1526 88.7344 35.0614 88.9113 34.9896C89.0882 34.9178 89.1766 34.8819 89.1766 34.8819C89.1766 34.8819 89.2094 34.8761 89.2751 34.8646C89.3516 34.8375 89.4369 34.8225 89.5312 34.8194C89.6254 34.8163 89.7242 34.8395 89.8277 34.889C89.9289 34.9253 90.0119 35.0122 90.0768 35.1497C90.1525 35.2717 90.1799 35.3888 90.159 35.5007C90.1489 35.5973 90.1115 35.6919 90.0466 35.7846C89.9925 35.8618 89.9427 35.9247 89.8971 35.9734C89.8623 36.0066 89.845 36.0232 89.845 36.0232C89.845 36.0232 89.7523 36.0734 89.5669 36.1738C89.3815 36.2742 89.1262 36.4004 88.801 36.5525C88.4866 36.6892 88.1329 36.8328 87.7397 36.9834C87.3465 37.1339 86.9345 37.254 86.5035 37.3435C86.0879 37.4439 85.6697 37.4905 85.2487 37.4835ZM83.1547 32.6335L87.0279 31.9099C87.0279 31.9099 87.0727 31.8952 87.1623 31.8659C87.2496 31.8234 87.362 31.7698 87.4995 31.7049C87.6501 31.6377 87.7949 31.5377 87.934 31.4049C88.073 31.2721 88.1931 31.1087 88.2943 30.9149C88.3932 30.7079 88.4446 30.4619 88.4485 30.1769C88.4463 29.7034 88.366 29.3249 88.2077 29.0414C88.0625 28.7556 87.8077 28.5772 87.4431 28.5061C87.0763 28.4218 86.5746 28.4561 85.9381 28.609C85.4701 28.7186 85.0556 28.9406 84.6949 29.275C84.345 29.5939 84.0514 29.9639 83.8142 30.3848C83.5771 30.8057 83.4001 31.2228 83.2834 31.636C83.1644 32.036 83.1215 32.3685 83.1547 32.6335ZM95.0198 35.7606C94.154 35.7644 93.4612 35.636 92.9414 35.3757C92.4193 35.1022 92.0259 34.7519 91.761 34.3247C91.4938 33.8844 91.3128 33.3951 91.2178 32.8567C91.136 32.316 91.0948 31.775 91.0941 31.2335C91.0949 30.6241 91.2205 29.9927 91.4709 29.3393C91.7189 28.6728 92.0616 28.0437 92.4988 27.4522C92.9492 26.8583 93.4849 26.3644 94.1059 25.9706C94.7401 25.5744 95.4426 25.3355 96.2135 25.2537C96.9843 25.172 97.6084 25.2176 98.0857 25.3907C98.5738 25.5483 98.9476 25.787 99.2071 26.1068C99.4666 26.4266 99.6442 26.7812 99.7399 27.1705C99.8356 27.5598 99.8819 27.9375 99.8788 28.3036C99.8632 28.9833 99.6782 29.5845 99.3236 30.1074C98.9666 30.6171 98.4344 31.0156 97.7269 31.3028C97.5106 31.3816 97.2472 31.4619 96.9367 31.5437C96.6239 31.6124 96.2836 31.6792 95.916 31.744C95.5483 31.8088 95.1861 31.8659 94.8292 31.9153C94.4855 31.9624 94.1681 32.0048 93.8769 32.0426C93.5857 32.0804 93.3482 32.1155 93.1643 32.1479C92.9913 32.1649 92.9048 32.1734 92.9048 32.1734C92.9302 32.548 93.0333 32.9021 93.214 33.2358C93.4055 33.5541 93.6851 33.7959 94.0527 33.9612C94.4335 34.1242 94.9031 34.1768 95.4615 34.119C95.9496 34.0464 96.4081 33.9588 96.8367 33.8562C97.2654 33.7535 97.6327 33.6481 97.9386 33.54C98.2576 33.4296 98.5055 33.3385 98.6824 33.2667C98.8593 33.1949 98.9478 33.159 98.9478 33.159C98.9478 33.159 98.9806 33.1532 99.0462 33.1417C99.1227 33.1146 99.2081 33.0996 99.3023 33.0965C99.3965 33.0934 99.4954 33.1166 99.5989 33.1661C99.7001 33.2024 99.7831 33.2893 99.8479 33.4268C99.9236 33.5488 99.951 33.6658 99.9301 33.7778C99.9201 33.8744 99.8826 33.969 99.8177 34.0617C99.7636 34.1389 99.7138 34.2018 99.6682 34.2505C99.6335 34.2837 99.6161 34.3003 99.6161 34.3003C99.6161 34.3003 99.5234 34.3505 99.338 34.4509C99.1526 34.5513 98.8973 34.6775 98.5721 34.8296C98.2578 34.9663 97.904 35.1099 97.5108 35.2605C97.1177 35.411 96.7056 35.5311 96.2746 35.6206C95.859 35.721 95.4408 35.7676 95.0198 35.7606ZM92.9258 30.9106L96.799 30.187C96.799 30.187 96.8438 30.1723 96.9334 30.143C97.0207 30.1005 97.1331 30.0468 97.2706 29.982C97.4212 29.9148 97.5661 29.8148 97.7051 29.682C97.8441 29.5491 97.9643 29.3858 98.0655 29.192C98.1644 28.985 98.2158 28.739 98.2197 28.454C98.2174 27.9805 98.1371 27.602 97.9789 27.3185C97.8337 27.0327 97.5788 26.8543 97.2143 26.7832C96.8474 26.6989 96.3457 26.7332 95.7093 26.8861C95.2412 26.9957 94.8268 27.2177 94.466 27.5521C94.1161 27.871 93.8225 28.2409 93.5854 28.6619C93.3482 29.0828 93.1713 29.4998 93.0546 29.913C92.9356 30.3131 92.8927 30.6456 92.9258 30.9106Z" fill="#FEEE91"/>
<path d="M96.6123 11.8314C75.2237 5.39307 37.7487 13.7282 19.8889 25.8114C11.755 31.3145 -2.51045 45.6195 9.30048 54.6678C11.3836 56.2638 13.7805 57.4362 16.2141 58.3872C42.9971 68.8531 76.4652 61.4049 100.868 48.0141C104.507 46.017 108.041 43.7848 111.172 41.0459C113.513 38.9975 115.701 36.5845 117.337 33.9301C122.128 26.1596 119.375 19.675 111.942 15.114C103.325 9.8259 92.771 9.57713 82.9559 10.1524C74.3732 10.6555 65.9405 11.9484 57.5613 13.8382C41.8467 17.3823 23.7946 21.7956 12.0954 33.1658C6.98557 38.1322 2.23431 47.6568 8.41264 53.5982C15.1076 60.0364 28.2436 60.1871 37.07 60.2384C60.8813 60.377 97.0158 51.855 116.083 37.1115C118.139 35.5216 120.239 34.0075 121.99 32.0848C123.374 30.5655 124.658 28.8848 125.72 27.1239C133.241 14.645 111.003 11.5537 103.378 11.694C79.3894 12.1355 43.9089 12.9247 24.1366 26.4888" stroke="#FEEE91" stroke-width="2" stroke-miterlimit="1.5" stroke-linecap="round" stroke-linejoin="round"/>
</svg>
