<svg width="244" height="324" viewBox="0 0 244 324" fill="none" xmlns="http://www.w3.org/2000/svg">
<path d="M-69.9707 36.2237C-29.7706 14.4719 16.907 4.86552 62.4374 8.96745C92.0878 11.6412 159.554 24.2868 139.053 69.6379C129.487 90.8025 69.915 128.445 58.4592 140.966C37.091 164.334 57.8432 193.005 83.1451 205.533C117.373 222.486 150.714 210.796 184.71 200.165C200.151 195.336 215.63 188.255 225.797 175.653C235.953 163.057 239.262 143.79 229.821 130.653C217.761 113.845 189.551 115.462 175.706 130.824C161.861 146.187 161.049 170.11 168.841 189.267C175.371 205.313 187.207 219.346 190.165 236.421C195.811 269.036 169.411 295.962 154.269 321.895C143.037 341.139 134.894 364.321 141.759 385.52" stroke="#141414" stroke-width="16" stroke-miterlimit="10" stroke-linecap="round"/>
</svg>
