<svg width="424" height="264" viewBox="0 0 424 264" fill="none" xmlns="http://www.w3.org/2000/svg">
<path opacity="0.1" d="M-170 247.447C-165.626 193.717 -141.554 141.166 -101.723 98.3737C-75.7806 70.5081 -8.78864 11.2269 30.5585 60.1596C48.9216 82.9948 49.0051 166.016 55.4322 185.301C67.435 221.281 118.117 218.622 152.69 201.283C199.466 177.831 210.801 137.259 223.922 96.7014C229.882 78.2797 233.137 58.4051 225.625 40.3535C218.112 22.3155 197.262 6.90929 174.091 8.06064C144.46 9.51355 124.828 38.6401 132.874 62.0922C140.921 85.5442 169.333 101.389 198.547 105.666C223.02 109.243 249.113 106.269 272.1 114.054C316.004 128.926 328.475 172.157 348.357 203.545C363.114 226.832 385.016 249.517 416 256" stroke="white" stroke-width="16" stroke-miterlimit="10" stroke-linecap="round"/>
</svg>
