<svg width="124" height="402" viewBox="0 0 124 402" fill="none" xmlns="http://www.w3.org/2000/svg">
<path d="M279.91 383.073C237.354 396.215 190.917 396.518 148.184 383.939C120.356 375.744 58.2838 350.827 86.5019 311.384C99.67 292.977 163.762 268.332 177.091 258.545C201.957 240.276 187.577 208.929 165.779 192.144C136.292 169.432 102.205 174.263 67.6931 177.957C52.0177 179.635 35.8781 183.458 23.765 193.568C11.6625 203.674 4.83621 221.458 11.3607 235.809C19.6893 254.166 46.9565 257.986 63.1101 245.938C79.2637 233.889 84.5895 211.18 80.7868 191.39C77.5974 174.813 68.9546 159.151 69.3761 142.269C70.1825 110.026 100.534 89.3137 119.938 67.4097C134.332 51.1547 146.523 30.5481 143.994 8.98232" stroke="#141414" stroke-width="16" stroke-miterlimit="10" stroke-linecap="round"/>
</svg>
