<svg width="144" height="485" viewBox="0 0 144 485" fill="none" xmlns="http://www.w3.org/2000/svg">
<path d="M-68.0161 6.88146C-15.6603 15.9434 33.8717 40.7554 72.4933 77.2588C97.6427 101.033 150.147 161.12 98.7987 187.779C74.8362 200.221 -6.64036 191.731 -26.1091 194.922C-62.4323 200.885 -64.112 241.994 -50.023 271.637C-30.9676 311.743 7.88658 325.057 46.5761 339.81C64.1492 346.51 83.3769 351.181 101.727 346.989C120.064 342.796 136.946 327.584 137.777 308.796C138.859 284.772 111.938 265.952 88.2436 270.018C64.5489 274.084 46.5957 295.343 39.9269 318.441C34.3452 337.791 35.0559 359.12 25.4707 376.839C7.16144 410.681 -36.3167 416.273 -68.8009 429.057C-92.9021 438.547 -117.016 453.856 -126 478.152" stroke="#141414" stroke-width="12" stroke-miterlimit="10" stroke-linecap="round"/>
</svg>
