<svg width="90" height="12" viewBox="0 0 90 12" fill="none" xmlns="http://www.w3.org/2000/svg">
<path d="M9.85539 6.38011C14.5756 9.60842 18.9326 8.75101 24.2753 3.45455C28.5805 -0.782609 31.7447 -1.08537 35.7387 2.34472C42.1706 7.84294 46.9428 8.7508 51.2999 5.27028C56.2794 1.28533 57.1612 0.7807 59.2879 0.7807C61.7258 0.7807 63.0745 1.43655 64.7862 3.40381C69.3508 8.64982 74.2266 8.85159 80.088 3.90823C85.9493 -1.03512 93.4187 0.427804 88.2835 5.52249C81.7478 11.9791 71.4256 13.6943 63.0745 9.65887L59.3398 7.84264L56.072 9.4569C50.055 12.4834 38.2803 11.6258 32.7302 7.84264L31.3297 6.88453L28.8399 8.59927C20.8519 14.0975 0 12.5844 0 6.53133C0 4.00921 6.22445 3.90843 9.85539 6.38011Z" fill="#FEEE91"/>
</svg>
