<svg width="180" height="24" viewBox="0 0 180 24" fill="none" xmlns="http://www.w3.org/2000/svg">
<path d="M70.8259 5.44807L70.8276 5.44956C77.3115 10.9922 83.0737 14.3258 88.4094 15.3317C93.8126 16.3504 98.6673 14.9617 103.224 11.3219L103.225 11.3213C108.224 7.3206 111.086 5.13398 113.218 3.93363C115.26 2.78387 116.589 2.5614 118.576 2.5614C120.923 2.5614 122.654 2.87709 124.187 3.61098C125.726 4.34832 127.152 5.54892 128.818 7.46403C133.488 12.8315 138.447 15.7638 143.867 15.9535C149.262 16.1423 154.868 13.6016 160.821 8.58089C166.531 3.76528 172.897 2.19024 176.426 2.88344C178.18 3.22798 178.909 4.02876 178.991 4.94098C179.088 6.0234 178.386 7.83148 175.864 10.3342C163.095 22.9477 142.908 26.3047 126.585 18.4179C126.585 18.4177 126.584 18.4175 126.584 18.4173L119.117 14.786L118.676 14.5716L118.237 14.7887L111.701 18.0172L111.695 18.0204C105.903 20.9338 97.2109 22.0209 88.5222 21.4093C79.8353 20.7978 71.3717 18.5038 66.025 14.8599C66.0246 14.8596 66.0241 14.8593 66.0236 14.859L63.224 12.9437L62.6575 12.5562L62.0922 12.9455L57.1129 16.3748C57.1128 16.3749 57.1127 16.3749 57.1126 16.375C53.2845 19.0098 47.8403 20.8477 41.7557 21.9087C35.686 22.9671 29.0574 23.2389 22.9208 22.7967C16.7727 22.3536 11.1835 21.1986 7.16565 19.446C3.06321 17.6565 1 15.4394 1 13.0627C1 12.3048 1.43635 11.6304 2.51179 11.0836C3.60631 10.5272 5.22117 10.1962 7.14786 10.166C10.9969 10.1057 15.7137 11.2494 19.147 13.5861C24.0317 16.9268 28.8412 18.22 33.8613 17.2085C38.8319 16.2071 43.8504 12.9764 49.253 7.62084C53.5059 3.43538 57.0332 1.36388 60.3435 1.04421C63.6133 0.728441 66.929 2.10147 70.8259 5.44807Z" fill="#FEEE91" stroke="#1B1B1B" stroke-width="2"/>
</svg>
