<svg width="152" height="40" viewBox="0 0 152 40" fill="none" xmlns="http://www.w3.org/2000/svg">
<g clip-path="url(#clip0_66_195)">
<path d="M5.36523 30.1128H9.83641V14.7922H7.5114C6.32611 14.7922 5.36523 15.7383 5.36523 16.9054V30.1128Z" fill="#67C794"/>
<path d="M15.2026 27.999C15.2026 29.166 14.2417 30.1122 13.0564 30.1122H10.7314V8.98035H13.0564C14.2417 8.98035 15.2026 9.92645 15.2026 11.0935V27.999Z" fill="#8EF8B6"/>
<path d="M0 22.012H2.32501C3.51028 22.012 4.47116 22.9581 4.47116 24.1252V30.1124H2.14616C0.960866 30.1124 0 29.1662 0 27.9992V22.012Z" fill="#4D9A7B"/>
<path d="M90.9648 29.2373V11.5458H92.5046V20.941L101.66 11.5458H103.535L96.6761 18.5785L103.703 29.2373H102.023L95.7244 19.5674L92.5046 22.8915V29.2373H90.9648ZM110.717 29.512C108.478 29.512 106.863 28.9351 105.874 27.7814C104.885 26.6276 104.39 24.9427 104.39 22.7266C104.39 20.5289 104.894 18.8532 105.902 17.6994C106.91 16.5273 108.515 15.9412 110.717 15.9412C112.938 15.9412 114.553 16.5273 115.561 17.6994C116.569 18.8532 117.073 20.5289 117.073 22.7266C117.073 24.9427 116.569 26.6276 115.561 27.7814C114.572 28.9351 112.957 29.512 110.717 29.512ZM110.717 28.2208C112.49 28.2208 113.732 27.7722 114.441 26.8748C115.169 25.9773 115.533 24.5946 115.533 22.7266C115.533 20.8769 115.169 19.5033 114.441 18.6059C113.713 17.7085 112.472 17.2598 110.717 17.2598C108.963 17.2598 107.722 17.7085 106.994 18.6059C106.266 19.5033 105.902 20.8769 105.902 22.7266C105.902 24.5946 106.266 25.9773 106.994 26.8748C107.722 27.7722 108.963 28.2208 110.717 28.2208ZM123.952 29.512C123.112 29.512 122.337 29.3839 121.628 29.1274C120.937 28.8711 120.377 28.468 119.948 27.9188C119.538 27.3509 119.332 26.6367 119.332 25.7759C119.332 24.6221 119.706 23.688 120.452 22.9738C121.199 22.2412 122.468 21.8751 124.26 21.8751H129.215V20.6388C129.215 19.8147 129.103 19.1554 128.879 18.6609C128.655 18.1481 128.244 17.7818 127.647 17.562C127.068 17.3422 126.21 17.2323 125.071 17.2323C124.306 17.2323 123.569 17.2965 122.86 17.4247C122.151 17.5529 121.479 17.7268 120.844 17.9466V16.6555C121.423 16.4357 122.095 16.2617 122.86 16.1335C123.644 16.0053 124.474 15.9412 125.351 15.9412C127.18 15.9412 128.524 16.3075 129.383 17.0401C130.26 17.7543 130.699 18.9447 130.699 20.6113V29.2373H129.439L129.299 27.6165C128.683 28.2575 127.955 28.7336 127.115 29.0449C126.275 29.3563 125.221 29.512 123.952 29.512ZM124.343 28.2485C125.407 28.2485 126.341 28.0835 127.143 27.7538C127.946 27.406 128.636 26.8932 129.215 26.2155V23.0837H124.316C123.009 23.0837 122.104 23.3128 121.6 23.7705C121.096 24.2285 120.844 24.8969 120.844 25.7759C120.844 26.6734 121.152 27.3144 121.768 27.699C122.402 28.0652 123.261 28.2485 124.343 28.2485ZM136.669 29.512C135.922 29.512 135.325 29.3105 134.877 28.9076C134.429 28.5047 134.205 27.7814 134.205 26.7375V10.7216H135.745V26.6825C135.745 27.2687 135.839 27.6715 136.025 27.8913C136.212 28.1109 136.51 28.2208 136.921 28.2208C137.332 28.2208 137.742 28.166 138.153 28.0561V29.3198C137.91 29.393 137.658 29.4388 137.397 29.4571C137.136 29.4938 136.893 29.512 136.669 29.512ZM144.595 29.512C143.755 29.512 142.98 29.3839 142.271 29.1274C141.58 28.8711 141.021 28.468 140.591 27.9188C140.181 27.3509 139.975 26.6367 139.975 25.7759C139.975 24.6221 140.349 23.688 141.095 22.9738C141.842 22.2412 143.111 21.8751 144.903 21.8751H149.858V20.6388C149.858 19.8147 149.746 19.1554 149.522 18.6609C149.298 18.1481 148.888 17.7818 148.29 17.562C147.712 17.3422 146.853 17.2323 145.715 17.2323C144.949 17.2323 144.212 17.2965 143.503 17.4247C142.794 17.5529 142.122 17.7268 141.487 17.9466V16.6555C142.066 16.4357 142.738 16.2617 143.503 16.1335C144.287 16.0053 145.117 15.9412 145.995 15.9412C147.824 15.9412 149.167 16.3075 150.026 17.0401C150.903 17.7543 151.342 18.9447 151.342 20.6113V29.2373H150.082L149.942 27.6165C149.326 28.2575 148.598 28.7336 147.758 29.0449C146.918 29.3563 145.864 29.512 144.595 29.512ZM144.987 28.2485C146.051 28.2485 146.984 28.0835 147.786 27.7538C148.589 27.406 149.279 26.8932 149.858 26.2155V23.0837H144.959C143.652 23.0837 142.747 23.3128 142.243 23.7705C141.739 24.2285 141.487 24.8969 141.487 25.7759C141.487 26.6734 141.795 27.3144 142.411 27.699C143.046 28.0652 143.904 28.2485 144.987 28.2485Z" fill="white"/>
<path d="M21.9414 29.4845V12.2227H34.4433V15.0371H25.5946V19.4598H33.4421V22.2474H25.5946V26.6969H34.4433V29.4845H21.9414ZM42.998 29.7526C40.707 29.7526 38.9481 29.1897 37.7212 28.0639C36.5126 26.9382 35.9081 25.2942 35.9081 23.132C35.9081 20.8984 36.5576 19.2364 37.8565 18.1464C39.1735 17.0564 40.9235 16.5113 43.1062 16.5113C44.0084 16.5113 44.784 16.5739 45.4334 16.699C46.0829 16.8241 46.7144 17.0296 47.3276 17.3155V19.9155C46.8768 19.701 46.3535 19.5313 45.7581 19.4062C45.1628 19.2811 44.5225 19.2186 43.8368 19.2186C42.4659 19.2186 41.4195 19.5045 40.6978 20.0763C39.9764 20.6303 39.6154 21.6489 39.6154 23.132C39.6154 24.4901 39.9401 25.4819 40.5896 26.1072C41.2571 26.7326 42.3306 27.0454 43.8098 27.0454C44.4413 27.0454 45.0546 26.9829 45.6499 26.8577C46.2633 26.7326 46.8316 26.545 47.3547 26.2949V28.9753C46.1461 29.4934 44.6938 29.7526 42.998 29.7526ZM56.0759 29.7526C53.6764 29.7526 51.9175 29.1808 50.7991 28.0371C49.6804 26.8757 49.1213 25.2406 49.1213 23.132C49.1213 21.0233 49.6804 19.3973 50.7991 18.2536C51.9356 17.0921 53.6945 16.5113 56.0759 16.5113C58.4751 16.5113 60.234 17.0921 61.3526 18.2536C62.4892 19.3973 63.0575 21.0233 63.0575 23.132C63.0575 25.2406 62.4981 26.8757 61.3797 28.0371C60.2611 29.1808 58.4932 29.7526 56.0759 29.7526ZM56.0759 26.6701C57.2484 26.6701 58.0873 26.4109 58.5925 25.8928C59.0975 25.3567 59.3502 24.4365 59.3502 23.132C59.3502 21.8274 59.0975 20.9161 58.5925 20.3979C58.0873 19.8619 57.2484 19.5938 56.0759 19.5938C54.9212 19.5938 54.0913 19.8619 53.5863 20.3979C53.0811 20.9161 52.8286 21.8274 52.8286 23.132C52.8286 24.4365 53.0811 25.3567 53.5863 25.8928C54.0913 26.4109 54.9212 26.6701 56.0759 26.6701ZM65.5976 29.4845V16.7794H68.9801L69.1155 18.0124C69.7287 17.5478 70.3962 17.1814 71.1179 16.9134C71.8575 16.6454 72.6512 16.5113 73.4992 16.5113C74.4012 16.5113 75.0958 16.6454 75.5829 16.9134C76.0879 17.1814 76.4759 17.5656 76.7465 18.066C77.3418 17.6014 78.0183 17.2261 78.776 16.9402C79.5516 16.6543 80.4627 16.5113 81.5091 16.5113C82.9883 16.5113 84.0799 16.8955 84.7834 17.6639C85.487 18.4144 85.8388 19.567 85.8388 21.1217V29.4845H82.2398V21.5237C82.2398 20.6839 82.0593 20.0852 81.6986 19.7278C81.3376 19.3526 80.7604 19.165 79.9667 19.165C78.8843 19.165 77.9821 19.5491 77.2606 20.3175C77.3508 20.6212 77.3959 20.9876 77.3959 21.4165V29.4845H73.9863V21.5237C73.9863 20.7375 73.851 20.1478 73.5804 19.7546C73.3098 19.3615 72.7865 19.165 72.0109 19.165C71.4697 19.165 70.9556 19.3079 70.4685 19.5938C69.9993 19.8619 69.5755 20.1746 69.1966 20.532V29.4845H65.5976Z" fill="white"/>
</g>
<defs>
<clipPath id="clip0_66_195">
<rect width="151.538" height="40" fill="white"/>
</clipPath>
</defs>
</svg>
